
<svg viewBox="0 -28.5 256 256" xmlns="http://www.w3.org/2000/svg">
  <path d="M216.856 16.597A208.502 208.502 0 0 0 164.042 0c-2.275 4.113-4.933 9.645-6.766 14.046-19.692-2.961-39.203-2.961-58.533 0-1.832-4.4-4.55-9.933-6.846-14.046a207.809 207.809 0 0 0-52.855 16.638C5.618 67.784-3.443 118.216 1.087 167.825c22.169 16.19 43.653 26.044 64.775 32.486 5.216-7.233 9.845-14.868 13.86-22.924a134.668 134.668 0 0 1-21.846-10.53c1.833-1.358 3.625-2.798 5.337-4.277 42.11 19.575 87.682 19.575 129.08 0 1.752 1.497 3.544 2.937 5.337 4.277a134.285 134.285 0 0 1-21.886 10.55c4.015 8.035 8.644 15.69 13.86 22.923 21.142-6.442 42.646-16.295 64.815-32.505 5.316-58-9.08-108.031-38.513-151.228zM85.474 135.095c-12.645 0-23.015-11.805-23.015-26.18s10.149-26.2 23.015-26.2c12.867 0 23.236 11.804 23.015 26.2.02 14.375-10.148 26.18-23.015 26.18zm85.051 0c-12.645 0-23.014-11.805-23.014-26.18s10.148-26.2 23.014-26.2c12.867 0 23.236 11.804 23.015 26.2 0 14.375-10.148 26.18-23.015 26.18z" fill="#5865F2"/>
</svg>
